<svg id="visual" viewBox="0 0 900 600" width="900" height="600" xmlns="http://www.w3.org/2000/svg" xmlns:xlink="http://www.w3.org/1999/xlink" version="1.1"><rect x="0" y="0" width="900" height="600" fill="#000000"></rect><g transform="translate(461.20361850038967 281.16070701936485)"><path d="M55.3 -103.9C73 -85.5 89.8 -73.5 104.7 -57.2C119.7 -41 132.8 -20.5 146.1 7.7C159.4 35.8 172.8 71.7 163.5 97.6C154.1 123.6 122.1 139.8 91 159.3C60 178.9 30 202 4.1 194.9C-21.8 187.8 -43.7 150.6 -71.5 129.2C-99.4 107.8 -133.3 102.1 -155.3 83.2C-177.4 64.3 -187.7 32.2 -188.9 -0.7C-190 -33.5 -182 -67 -163.1 -91.4C-144.2 -115.8 -114.4 -131.1 -85.3 -143C-56.3 -154.9 -28.2 -163.5 -4.7 -155.3C18.8 -147.1 37.5 -122.3 55.3 -103.9" fill="#3a3939"></path></g></svg>