<svg id="visual" viewBox="0 0 900 600" width="900" height="600" xmlns="http://www.w3.org/2000/svg" xmlns:xlink="http://www.w3.org/1999/xlink" version="1.1"><rect x="0" y="0" width="900" height="600" fill="#000000"></rect><g transform="translate(463.2835400337267 310.6667354802829)"><path d="M104.5 -182.3C134.9 -163.3 158.8 -134.4 159.1 -102.4C159.3 -70.3 135.9 -35.2 136.8 0.5C137.6 36.2 162.8 72.3 162.8 104.8C162.8 137.3 137.6 166.1 106.3 176.5C75 186.9 37.5 179 1.4 176.5C-34.7 174 -69.3 177.1 -90.8 161C-112.3 144.9 -120.7 109.7 -140.4 79.7C-160 49.7 -191 24.8 -189.3 1C-187.5 -22.8 -153.1 -45.7 -126.8 -64.1C-100.4 -82.6 -82.2 -96.7 -62.4 -121.8C-42.7 -146.9 -21.3 -183 7.8 -196.5C37 -210.1 74 -201.2 104.5 -182.3" fill="#3a3939"></path></g></svg>