<svg id="visual" viewBox="0 0 960 300" width="960" height="300" xmlns="http://www.w3.org/2000/svg" xmlns:xlink="http://www.w3.org/1999/xlink" version="1.1"><rect x="0" y="0" width="960" height="300" fill="#000000"></rect><path d="M0 220L22.8 218C45.7 216 91.3 212 137 217.7C182.7 223.3 228.3 238.7 274 248.2C319.7 257.7 365.3 261.3 411.2 263.8C457 266.3 503 267.7 548.8 268.3C594.7 269 640.3 269 686 263.5C731.7 258 777.3 247 823 246C868.7 245 914.3 254 937.2 258.5L960 263L960 301L937.2 301C914.3 301 868.7 301 823 301C777.3 301 731.7 301 686 301C640.3 301 594.7 301 548.8 301C503 301 457 301 411.2 301C365.3 301 319.7 301 274 301C228.3 301 182.7 301 137 301C91.3 301 45.7 301 22.8 301L0 301Z" fill="#484848" stroke-linecap="round" stroke-linejoin="miter"></path></svg>